<?xml version="1.0" encoding="UTF-8"?><svg xmlns="http://www.w3.org/2000/svg" xmlns:xlink="http://www.w3.org/1999/xlink" contentScriptType="text/ecmascript" width="375" zoomAndPan="magnify" contentStyleType="text/css" viewBox="0 0 375 374.999991" height="374.999991" preserveAspectRatio="xMidYMid meet" version="1.0"><defs><clipPath id="clip-0"><path d="M 159 106 L 347.171875 106 L 347.171875 194 L 159 194 Z M 159 106 " clip-rule="nonzero"/></clipPath><clipPath id="clip-1"><path d="M 102 206 L 291 206 L 291 293.816406 L 102 293.816406 Z M 102 206 " clip-rule="nonzero"/></clipPath><clipPath id="clip-2"><path d="M 27.671875 206 L 78 206 L 78 219 L 27.671875 219 Z M 27.671875 206 " clip-rule="nonzero"/></clipPath></defs><path fill="rgb(16.468811%, 14.898682%, 13.328552%)" d="M 187.351562 374.699219 C 137.332031 374.699219 90.230469 355.230469 54.886719 319.8125 C 19.46875 284.46875 0 237.371094 0 187.351562 C 0 137.332031 19.46875 90.230469 54.886719 54.886719 C 90.230469 19.46875 137.332031 0 187.351562 0 C 237.371094 0 284.46875 19.46875 319.8125 54.886719 C 355.230469 90.304688 374.699219 137.332031 374.699219 187.351562 C 374.699219 237.371094 355.230469 284.46875 319.8125 319.8125 C 284.46875 355.230469 237.371094 374.699219 187.351562 374.699219 Z M 187.351562 11.230469 C 140.324219 11.230469 96.070312 29.578125 62.824219 62.824219 C 29.578125 96.070312 11.230469 140.324219 11.230469 187.351562 C 11.230469 234.375 29.578125 278.628906 62.824219 311.875 C 96.070312 345.121094 140.324219 363.46875 187.351562 363.46875 C 234.375 363.46875 278.628906 345.121094 311.875 311.875 C 345.121094 278.628906 363.46875 234.375 363.46875 187.351562 C 363.46875 140.324219 345.121094 96.070312 311.875 62.824219 C 278.628906 29.578125 234.375 11.230469 187.351562 11.230469 Z M 187.351562 11.230469 " fill-opacity="1" fill-rule="nonzero"/><g clip-path="url(#clip-0)"><path fill="rgb(0%, 0%, 0%)" d="M 303.140625 106.070312 C 278.9375 106.070312 259.273438 125.710938 259.273438 149.882812 C 259.273438 153.40625 262.128906 156.09375 265.492188 156.09375 C 268.851562 156.09375 271.710938 153.238281 271.710938 149.882812 C 271.710938 132.59375 285.828125 118.660156 302.972656 118.660156 C 320.113281 118.660156 334.230469 132.761719 334.230469 149.882812 C 334.230469 167.003906 320.113281 181.105469 302.972656 181.105469 L 165.492188 181.105469 C 161.960938 181.105469 159.273438 183.957031 159.273438 187.316406 C 159.273438 190.839844 162.128906 193.527344 165.492188 193.527344 L 303.308594 193.527344 C 327.507812 193.527344 347.171875 173.886719 347.171875 149.714844 C 347.171875 125.542969 327.339844 106.070312 303.140625 106.070312 Z M 303.140625 106.070312 " fill-opacity="1" fill-rule="nonzero"/></g><g clip-path="url(#clip-1)"><path fill="rgb(0%, 0%, 0%)" d="M 246.835938 206.117188 L 109.019531 206.117188 C 105.488281 206.117188 102.800781 208.96875 102.800781 212.328125 C 102.800781 215.851562 105.65625 218.539062 109.019531 218.539062 L 246.835938 218.539062 C 264.148438 218.539062 278.097656 232.640625 278.097656 249.761719 C 278.097656 266.882812 263.980469 280.984375 246.835938 280.984375 C 229.691406 280.984375 215.574219 266.882812 215.574219 249.761719 C 215.574219 246.234375 212.71875 243.550781 209.355469 243.550781 C 205.996094 243.550781 203.136719 246.402344 203.136719 249.761719 C 203.136719 273.933594 222.800781 293.574219 247.003906 293.574219 C 271.207031 293.574219 290.871094 273.933594 290.871094 249.761719 C 290.871094 225.589844 271.039062 206.117188 246.835938 206.117188 Z M 246.835938 206.117188 " fill-opacity="1" fill-rule="nonzero"/></g><path fill="rgb(0%, 0%, 0%)" d="M 58.933594 168.683594 L 196.75 168.683594 C 220.953125 168.683594 240.617188 149.042969 240.617188 124.871094 C 240.617188 100.699219 220.953125 81.058594 196.75 81.058594 C 172.550781 81.058594 152.886719 100.699219 152.886719 124.871094 C 152.886719 128.394531 155.742188 131.082031 159.105469 131.082031 C 162.632812 131.082031 165.324219 128.226562 165.324219 124.871094 C 165.324219 107.582031 179.441406 93.648438 196.582031 93.648438 C 213.726562 93.648438 227.84375 107.75 227.84375 124.871094 C 227.84375 141.992188 213.726562 156.09375 196.582031 156.09375 L 58.765625 156.09375 C 55.238281 156.09375 52.546875 158.945312 52.546875 162.304688 C 52.714844 165.828125 55.574219 168.683594 58.933594 168.683594 Z M 58.933594 168.683594 " fill-opacity="1" fill-rule="nonzero"/><g clip-path="url(#clip-2)"><path fill="rgb(0%, 0%, 0%)" d="M 71.539062 206.117188 L 33.890625 206.117188 C 30.363281 206.117188 27.671875 208.96875 27.671875 212.328125 C 27.671875 215.851562 30.53125 218.707031 33.890625 218.707031 L 71.539062 218.707031 C 75.070312 218.707031 77.757812 215.851562 77.757812 212.496094 C 77.757812 208.96875 74.902344 206.117188 71.539062 206.117188 Z M 71.539062 206.117188 " fill-opacity="1" fill-rule="nonzero"/></g><path fill="rgb(0%, 0%, 0%)" d="M 140.449219 187.316406 C 140.449219 183.789062 137.589844 181.105469 134.230469 181.105469 L 96.582031 181.105469 C 93.050781 181.105469 90.363281 183.957031 90.363281 187.316406 C 90.363281 190.839844 93.21875 193.527344 96.582031 193.527344 L 134.230469 193.527344 C 137.589844 193.695312 140.449219 190.839844 140.449219 187.316406 Z M 140.449219 187.316406 " fill-opacity="1" fill-rule="nonzero"/></svg>